<?xml version="1.0" encoding="UTF-8"?>
<svg width="100px" height="45px" viewBox="0 0 100 45" version="1.1" xmlns="http://www.w3.org/2000/svg" xmlns:xlink="http://www.w3.org/1999/xlink">
    <!-- Generator: Sketch 55.1 (78136) - https://sketchapp.com -->
    <title>logo-kash</title>
    <desc>Created with Sketch.</desc>
    <defs>
        <linearGradient x1="21.5581739%" y1="50%" x2="59.5641789%" y2="19.1240877%" id="linearGradient-1">
            <stop stop-color="#0095D5" offset="0%"></stop>
            <stop stop-color="#3C83DC" offset="41.78%"></stop>
            <stop stop-color="#6D74E1" offset="69.62%"></stop>
            <stop stop-color="#806EE3" offset="100%"></stop>
        </linearGradient>
        <linearGradient x1="17.4364086%" y1="100%" x2="66.9827527%" y2="17.3497973%" id="linearGradient-2">
            <stop stop-color="#0095D5" offset="0%"></stop>
            <stop stop-color="#3C83DC" offset="41.78%"></stop>
            <stop stop-color="#6D74E1" offset="69.62%"></stop>
            <stop stop-color="#806EE3" offset="100%"></stop>
        </linearGradient>
        <linearGradient x1="29.3293903%" y1="108.694073%" x2="64.1041182%" y2="0%" id="linearGradient-3">
            <stop stop-color="#806EE3" offset="0%"></stop>
            <stop stop-color="#17BEBB" offset="48.0627111%"></stop>
            <stop stop-color="#26C485" offset="73.0891047%"></stop>
            <stop stop-color="#91F5AD" offset="100%"></stop>
        </linearGradient>
    </defs>
    <g id="logo-kash" stroke="none" stroke-width="1" fill="none" fill-rule="evenodd">
        <path d="M0,5.37083333 L6.80416667,5.37083333 L6.80416667,23.7229167 L15.38125,14.8104167 L23.43125,14.8104167 L14.0875,23.9145833 L24.4854167,39.5833333 L16.24375,39.5833333 L9.43958333,28.5145833 L6.80416667,31.0541667 L6.80416667,39.5833333 L0,39.5833333 L0,5.37083333 Z M23.15625,22.4291667 C23.2520838,20.8319365 23.6513854,19.5062553 24.3541667,18.4520833 C25.056948,17.3979114 25.9513835,16.5513921 27.0375,15.9125 C28.1236165,15.2736079 29.3454793,14.8184041 30.703125,14.546875 C32.0607707,14.2753459 33.426382,14.1395833 34.8,14.1395833 C36.0458396,14.1395833 37.3076325,14.2274297 38.5854167,14.403125 C39.8632008,14.5788203 41.0291614,14.9222197 42.0833333,15.4333333 C43.1375053,15.944447 43.9999966,16.6552038 44.6708333,17.565625 C45.34167,18.4760462 45.6770833,19.6819369 45.6770833,21.1833333 L45.6770833,34.0729167 C45.6770833,35.1909778 45.7409716,36.261106 45.86875,37.2833333 C45.9965284,38.3055607 46.2201373,39.0722197 46.5395833,39.5833333 L39.6395833,39.5833333 C39.5118049,39.1999981 39.4079865,38.8086826 39.328125,38.409375 C39.2482635,38.0100674 39.1923613,37.6027799 39.1604167,37.1875 C38.0743001,38.3055611 36.7965351,39.0881922 35.3270833,39.5354167 C33.8576315,39.9826411 32.3562577,40.20625 30.8229167,40.20625 C29.6409663,40.20625 28.538894,40.0625014 27.5166667,39.775 C26.4944393,39.4874986 25.6000038,39.0402808 24.8333333,38.4333333 C24.0666628,37.8263859 23.4677105,37.0597269 23.0364583,36.1333333 C22.6052062,35.2069398 22.3895833,34.1048675 22.3895833,32.8270833 C22.3895833,31.4215207 22.6371503,30.2635462 23.1322917,29.353125 C23.627433,28.4427038 24.2663155,27.7159749 25.0489583,27.1729167 C25.8316011,26.6298584 26.7260366,26.2225708 27.7322917,25.9510417 C28.7385467,25.6795125 29.7527727,25.4638897 30.775,25.3041667 C31.7972273,25.1444436 32.8034673,25.0166671 33.79375,24.9208333 C34.7840327,24.8249995 35.6624962,24.681251 36.4291667,24.4895833 C37.1958372,24.2979157 37.8027755,24.0184046 38.25,23.6510417 C38.6972245,23.2836787 38.9048613,22.7486146 38.8729167,22.0458333 C38.8729167,21.3111074 38.7531262,20.7281272 38.5135417,20.296875 C38.2739571,19.8656228 37.9545159,19.5302095 37.5552083,19.290625 C37.1559008,19.0510405 36.692711,18.8913198 36.165625,18.8114583 C35.638539,18.7315968 35.0715308,18.6916667 34.4645833,18.6916667 C33.12291,18.6916667 32.0687538,18.9791638 31.3020833,19.5541667 C30.5354128,20.1291695 30.0881951,21.0874933 29.9604167,22.4291667 L23.15625,22.4291667 Z M38.8729167,27.4604167 C38.5854152,27.7159735 38.2260438,27.9156243 37.7947917,28.059375 C37.3635395,28.2031257 36.9003497,28.3229162 36.4052083,28.41875 C35.910067,28.5145838 35.3909749,28.5944441 34.8479167,28.6583333 C34.3048584,28.7222225 33.7618083,28.8020829 33.21875,28.8979167 C32.7076363,28.9937505 32.2045164,29.121527 31.709375,29.28125 C31.2142336,29.440973 30.7829879,29.6565959 30.415625,29.928125 C30.0482621,30.1996541 29.7527789,30.5430535 29.5291667,30.9583333 C29.3055544,31.3736132 29.19375,31.9006912 29.19375,32.5395833 C29.19375,33.1465308 29.3055544,33.6576368 29.5291667,34.0729167 C29.7527789,34.4881965 30.0562481,34.8156238 30.4395833,35.0552083 C30.8229186,35.2947929 31.2701363,35.4624995 31.78125,35.5583333 C32.2923637,35.6541671 32.8194417,35.7020833 33.3625,35.7020833 C34.7041734,35.7020833 35.7423574,35.4784745 36.4770833,35.03125 C37.2118092,34.5840255 37.7548594,34.0489614 38.10625,33.4260417 C38.4576406,32.8031219 38.6732635,32.1722254 38.753125,31.5333333 C38.8329865,30.8944412 38.8729167,30.3833352 38.8729167,30 L38.8729167,27.4604167 Z" id="Combined-Shape-Copy-6" fill="url(#linearGradient-1)" fill-rule="nonzero"></path>
        <path d="M76.001843,5.37083333 L82.8060096,5.37083333 L82.8060096,18.2604167 L82.9497596,18.2604167 C83.812264,16.8229095 84.9143363,15.7767394 86.2560096,15.121875 C87.597683,14.4670106 88.9073921,14.1395833 90.1851763,14.1395833 C92.0060188,14.1395833 93.4994066,14.3871503 94.6653846,14.8822917 C95.8313627,15.377433 96.7497563,16.0642317 97.420593,16.9427083 C98.0914297,17.8211849 98.5626055,18.8913131 98.8341346,20.153125 C99.1056638,21.4149369 99.2414263,22.8124923 99.2414263,24.3458333 L99.2414263,39.5833333 L92.4372596,39.5833333 L92.4372596,25.5916667 C92.4372596,23.547212 92.1178184,22.02188 91.4789263,21.015625 C90.8400342,20.00937 89.7060178,19.50625 88.076843,19.50625 C86.2240559,19.50625 84.8824027,20.0572862 84.051843,21.159375 C83.2212833,22.2614638 82.8060096,24.0742929 82.8060096,26.5979167 L82.8060096,39.5833333 L76.001843,39.5833333 L76.001843,5.37083333 Z" id="Path-Copy-5" fill="url(#linearGradient-2)" fill-rule="nonzero"></path>
        <path d="M56.9685096,33.7065971 L56.9685096,24.4382886 C55.9498897,24.158564 54.9519796,23.8322615 53.9747596,23.459375 C52.7608647,22.9961782 51.6747644,22.3972259 50.7164263,21.6625 C49.7580882,20.9277741 48.9834432,20.0093805 48.392468,18.9072917 C47.8014928,17.8052028 47.5060096,16.4715356 47.5060096,14.90625 C47.5060096,13.1492968 47.8813531,11.6239648 48.6320513,10.3302083 C49.3827495,9.03645186 50.3650314,7.95833765 51.5789263,7.09583333 C52.7928213,6.23332902 54.1664186,5.59444652 55.6997596,5.17916667 C56.1226772,5.0646265 56.545593,4.96588248 56.968508,4.88293449 L56.9685096,0 L60.0935096,0 L60.0935096,4.55750226 C60.1622596,4.55666742 60.2310096,4.55625 60.2997596,4.55625 C60.5799963,4.55625 60.8584684,4.56114948 61.1351763,4.57094845 L61.1351763,0 L64.2601763,0 L64.2601763,4.90334627 C64.6611473,4.97591958 65.0580221,5.05987357 65.4508013,5.15520833 C67.0959484,5.55451589 68.5573921,6.20138442 69.8351763,7.09583333 C71.1129605,7.99028225 72.1271865,9.13228472 72.8778846,10.521875 C73.6285828,11.9114653 74.0039263,13.5965179 74.0039263,15.5770833 L66.720593,15.5770833 C66.6567038,14.554856 66.4410809,13.7083367 66.073718,13.0375 C65.706355,12.3666633 65.2192071,11.8395852 64.6122596,11.45625 C64.4980109,11.3840929 64.3806498,11.3158975 64.2601763,11.2516637 L64.2601763,19.2714269 C64.4997254,19.3324131 64.7448643,19.3947156 64.995593,19.4583333 C65.6344851,19.5861117 66.5209345,19.8177067 67.654968,20.153125 C68.7890014,20.4885433 69.9150318,21.0236074 71.033093,21.7583333 C72.1511541,22.4930592 73.1174639,23.4753411 73.9320513,24.7052083 C74.7466387,25.9350756 75.1539263,27.5083237 75.1539263,29.425 C75.1539263,30.9902856 74.8504571,32.4437433 74.2435096,33.7854167 C73.6365622,35.12709 72.7341406,36.2850646 71.536218,37.259375 C70.3382953,38.2336854 68.8528935,38.9923584 67.079968,39.5354167 C66.2076924,39.8026002 65.2677643,40.0040558 64.2601763,40.1397846 L64.2601763,44.7916667 L61.1351763,44.7916667 L61.1351763,40.3492449 C61.0646029,40.3497476 60.9937695,40.35 60.9226763,40.35 C60.6450741,40.35 60.3686852,40.3449757 60.0935095,40.3349271 L60.0935096,44.7916667 L56.9685096,44.7916667 L56.9685096,39.9953241 C56.4531898,39.9008328 55.9424263,39.787461 55.436218,39.6552083 C53.6632925,39.1920116 52.0980303,38.4652827 50.7403846,37.475 C49.382739,36.4847173 48.3046248,35.2229243 47.5060096,33.6895833 C46.7073945,32.1562423 46.324065,30.3354272 46.3560096,28.2270833 L53.639343,28.2270833 C53.639343,29.3770891 53.8469798,30.3513849 54.2622596,31.15 C54.6775395,31.9486151 55.2285757,32.5954836 55.9153846,33.090625 C56.2397146,33.3244443 56.5907555,33.529768 56.9685096,33.7065971 Z M60.0935096,34.5000402 C60.4366988,34.5324321 60.7839206,34.5497033 61.1351763,34.5518539 L61.1351763,25.5280566 C60.7892453,25.4449537 60.4420234,25.3592667 60.0935097,25.2709955 L60.0935096,34.5000383 Z M64.2601763,34.2012441 C64.6983446,34.0842237 65.1191764,33.9296428 65.5226763,33.7375 C66.193513,33.418054 66.7525352,32.9788222 67.1997596,32.4197917 C67.6469841,31.8607611 67.870593,31.1500043 67.870593,30.2875 C67.870593,29.3611065 67.5751098,28.6104195 66.9841346,28.0354167 C66.3931595,27.4604138 65.6185144,26.9812519 64.6601763,26.5979167 C64.5292284,26.5455375 64.3958951,26.4940531 64.2601763,26.4434634 L64.2601763,34.2012441 Z M61.1351763,10.4476354 C60.7988532,10.4205159 60.4516315,10.4055057 60.0935097,10.4026046 L60.0935096,18.1951631 C60.4183352,18.2808458 60.7655572,18.3717987 61.1351763,18.4680216 L61.1351763,10.4476354 Z M56.9685096,10.9943783 C56.8037295,11.0751796 56.6443546,11.1652479 56.4903846,11.2645833 C55.9952433,11.5840294 55.5879557,11.9833309 55.2685096,12.4625 C54.9490636,12.9416691 54.789343,13.5486074 54.789343,14.2833333 C54.789343,14.95417 54.9171195,15.4972201 55.1726763,15.9125 C55.4282331,16.3277799 55.9313531,16.7111094 56.6820513,17.0625 C56.7732907,17.1052078 56.8687768,17.1479155 56.9685096,17.1906232 L56.9685096,10.9943783 Z" id="Combined-Shape-Copy-7" fill="url(#linearGradient-3)" fill-rule="nonzero"></path>
    </g>
</svg>